# xmcd
#
# Track frame offsets:
#  150
#  16211
#  36064
#  56679
#  67149
#  88497
#  106579
#  125147
#  145728
#  159749
#  185599
#  202956
#  224358
#  241166
#
# Disc length: 3466 seconds
#
# Revision: 0
# Processed by: cddbd v1.5.1PL0 Copyright (c) Steve Scherf et al.
# Submitted via: AltoMP3_Maker 3.0
#
DISCID=cc0d880e
DTITLE=Tracy Jane Comer - Quietly There
DYEAR=1900
DGENRE=
TTITLE0=My Own History
TTITLE1=Yellow Bike
TTITLE2=Take Me to the Moutain
TTITLE3=Movin' in the Right Direction
TTITLE4=Quietly There
TTITLE5=Eleanor Rigby
TTITLE6=Silent Care
TTITLE7=Rondo
TTITLE8=Just One Person
TTITLE9=This Losing Game
TTITLE10=Pathetic Fallacy
TTITLE11=Baggage
TTITLE12=Hello
TTITLE13=Dive for Miles
EXTD=
EXTT0=
EXTT1=
EXTT2=
EXTT3=
EXTT4=
EXTT5=
EXTT6=
EXTT7=
EXTT8=
EXTT9=
EXTT10=
EXTT11=
EXTT12=
EXTT13=
PLAYORDER=
